<svg width="24" height="24" viewBox="0 0 24 24" fill="none" xmlns="http://www.w3.org/2000/svg">
  <g clip-path="url(#clip0_61_735)">
    <path d="M11.999 7.00098C10.6729 7.00098 9.40117 7.52776 8.46349 8.46544C7.52581 9.40313 6.99902 10.6749 6.99902 12.001C6.99902 13.3271 7.52581 14.5988 8.46349 15.5365C9.40117 16.4742 10.6729 17.001 11.999 17.001C13.3251 17.001 14.5969 16.4742 15.5346 15.5365C16.4722 14.5988 16.999 13.3271 16.999 12.001C16.999 10.6749 16.4722 9.40313 15.5346 8.46544C14.5969 7.52776 13.3251 7.00098 11.999 7.00098ZM11.999 15.2482C11.1375 15.2482 10.3113 14.9059 9.70215 14.2968C9.09298 13.6876 8.75075 12.8614 8.75075 11.9999C8.75075 11.1384 9.09298 10.3122 9.70215 9.70302C10.3113 9.09385 11.1375 8.75163 11.999 8.75163C12.8605 8.75163 13.6867 9.09385 14.2959 9.70302C14.9051 10.3122 15.2473 11.1384 15.2473 11.9999C15.2473 12.8614 14.9051 13.6876 14.2959 14.2968C13.6867 14.9059 12.8605 15.2482 11.999 15.2482Z" fill="#9A9A9A" />
    <path d="M17.0781 7.86523C17.9066 7.86523 18.5781 7.19366 18.5781 6.36523C18.5781 5.53681 17.9066 4.86523 17.0781 4.86523C16.2497 4.86523 15.5781 5.53681 15.5781 6.36523C15.5781 7.19366 16.2497 7.86523 17.0781 7.86523Z" fill="#9A9A9A" />
    <path d="M23.3889 4.15602C23.0804 3.36051 22.6089 2.6381 22.0047 2.035C21.4004 1.43191 20.6767 0.961434 19.8798 0.653688C18.9474 0.304196 17.9623 0.11522 16.9665 0.0948054C15.683 0.0389172 15.2765 0.0229492 12.022 0.0229492C8.76744 0.0229492 8.35029 0.0229491 7.07752 0.0948054C6.08248 0.114176 5.09808 0.303191 4.16682 0.653688C3.36975 0.961075 2.64585 1.43143 2.04154 2.03456C1.43724 2.6377 0.965878 3.36031 0.65771 4.15602C0.307605 5.08697 0.118769 6.07064 0.0992917 7.06487C0.0419838 8.34497 0.0246582 8.75083 0.0246582 12.0017C0.0246582 15.2512 0.0246582 15.665 0.0992917 16.9385C0.119283 17.9338 0.307199 18.9158 0.65771 19.8486C0.966743 20.6441 1.43856 21.3664 2.04301 21.9694C2.64746 22.5725 3.37126 23.043 4.16815 23.351C5.09765 23.7145 6.08246 23.917 7.08019 23.9498C8.36362 24.0056 8.7701 24.0229 12.0247 24.0229C15.2792 24.0229 15.6964 24.0229 16.9691 23.9498C17.9648 23.9295 18.9499 23.741 19.8825 23.3922C20.6792 23.0837 21.4027 22.6129 22.0068 22.0096C22.611 21.4063 23.0827 20.684 23.3916 19.8886C23.7421 18.9571 23.93 17.975 23.95 16.9797C24.0073 15.6996 24.0247 15.2937 24.0247 12.0429C24.0247 8.79208 24.0247 8.37957 23.95 7.10612C23.9345 6.09783 23.7447 5.09979 23.3889 4.15602ZM21.7657 16.84C21.7571 17.6069 21.6169 18.3666 21.3512 19.0862C21.151 19.6036 20.8446 20.0735 20.4517 20.4656C20.0587 20.8578 19.5879 21.1634 19.0695 21.3629C18.3568 21.627 17.604 21.767 16.8438 21.7768C15.5777 21.8353 15.2206 21.85 11.974 21.85C8.72479 21.85 8.39294 21.85 7.10285 21.7768C6.34309 21.7675 5.59062 21.6275 4.8785 21.3629C4.35831 21.1646 3.88561 20.8595 3.49097 20.4673C3.09633 20.0751 2.78854 19.6046 2.58752 19.0862C2.32556 18.3743 2.18545 17.6235 2.17304 16.8653C2.11573 15.6011 2.1024 15.2445 2.1024 12.003C2.1024 8.76014 2.1024 8.4288 2.17304 7.13938C2.18165 6.37295 2.32184 5.61366 2.58752 4.89454C2.99401 3.84464 3.82697 3.01829 4.8785 2.61643C5.59097 2.35314 6.34322 2.21319 7.10285 2.20259C8.37028 2.14537 8.72612 2.1294 11.974 2.1294C15.2219 2.1294 15.5551 2.1294 16.8438 2.20259C17.6041 2.21172 18.357 2.35172 19.0695 2.61643C19.5879 2.81639 20.0586 3.12235 20.4515 3.51467C20.8445 3.90699 21.1509 4.377 21.3512 4.89454C21.6131 5.60638 21.7533 6.35716 21.7657 7.11543C21.823 8.3809 21.8376 8.73619 21.8376 11.979C21.8376 15.2206 21.8376 15.5692 21.7803 16.8413H21.7657V16.84Z" fill="#9A9A9A" />
  </g>
  <defs>
    <clipPath id="clip0_61_735">
      <rect width="24" height="24" fill="white" />
    </clipPath>
  </defs>
</svg>