<svg width="25" height="24" viewBox="0 0 25 24" fill="none" xmlns="http://www.w3.org/2000/svg">
<g clip-path="url(#clip0_18_197)">
<path d="M12.499 7.00101C11.1729 7.00101 9.90117 7.52779 8.96349 8.46547C8.02581 9.40316 7.49902 10.6749 7.49902 12.001C7.49902 13.3271 8.02581 14.5989 8.96349 15.5365C9.90117 16.4742 11.1729 17.001 12.499 17.001C13.8251 17.001 15.0969 16.4742 16.0346 15.5365C16.9722 14.5989 17.499 13.3271 17.499 12.001C17.499 10.6749 16.9722 9.40316 16.0346 8.46547C15.0969 7.52779 13.8251 7.00101 12.499 7.00101ZM12.499 15.2482C11.6375 15.2482 10.8113 14.906 10.2021 14.2968C9.59298 13.6876 9.25075 12.8614 9.25075 11.9999C9.25075 11.1384 9.59298 10.3122 10.2021 9.70305C10.8113 9.09388 11.6375 8.75166 12.499 8.75166C13.3605 8.75166 14.1867 9.09388 14.7959 9.70305C15.4051 10.3122 15.7473 11.1384 15.7473 11.9999C15.7473 12.8614 15.4051 13.6876 14.7959 14.2968C14.1867 14.906 13.3605 15.2482 12.499 15.2482Z" fill="white"/>
<path d="M17.578 7.86514C18.4064 7.86514 19.078 7.19357 19.078 6.36514C19.078 5.53671 18.4064 4.86514 17.578 4.86514C16.7496 4.86514 16.078 5.53671 16.078 6.36514C16.078 7.19357 16.7496 7.86514 17.578 7.86514Z" fill="white"/>
<path d="M23.8888 4.15608C23.5803 3.36058 23.1088 2.63816 22.5045 2.03506C21.9003 1.43197 21.1766 0.961495 20.3797 0.653749C19.4472 0.304257 18.4621 0.115281 17.4663 0.0948664C16.1829 0.0389782 15.7764 0.0230103 12.5219 0.0230103C9.26732 0.0230103 8.85017 0.0230101 7.5774 0.0948664C6.58236 0.114237 5.59796 0.303252 4.6667 0.653749C3.86963 0.961136 3.14572 1.43149 2.54142 2.03462C1.93711 2.63776 1.46576 3.36037 1.15759 4.15608C0.807483 5.08703 0.618647 6.0707 0.59917 7.06493C0.541862 8.34503 0.524536 8.75089 0.524536 12.0017C0.524536 15.2512 0.524536 15.6651 0.59917 16.9385C0.619161 17.9339 0.807077 18.9159 1.15759 19.8487C1.46662 20.6441 1.93844 21.3664 2.54289 21.9695C3.14734 22.5725 3.87113 23.0431 4.66803 23.351C5.59753 23.7146 6.58234 23.9171 7.58007 23.9498C8.8635 24.0057 9.26998 24.023 12.5245 24.023C15.7791 24.023 16.1962 24.023 17.469 23.9498C18.4647 23.9296 19.4498 23.7411 20.3824 23.3923C21.179 23.0838 21.9025 22.6129 22.5067 22.0097C23.1109 21.4064 23.5825 20.684 23.8915 19.8886C24.242 18.9571 24.4299 17.9751 24.4499 16.9798C24.5072 15.6997 24.5245 15.2938 24.5245 12.043C24.5245 8.79214 24.5245 8.37963 24.4499 7.10618C24.4344 6.09789 24.2446 5.09985 23.8888 4.15608ZM22.2655 16.84C22.2569 17.6069 22.1168 18.3666 21.8511 19.0862C21.6509 19.6037 21.3445 20.0736 20.9516 20.4657C20.5586 20.8578 20.0878 21.1635 19.5694 21.363C18.8567 21.6271 18.1039 21.767 17.3437 21.7768C16.0776 21.8354 15.7205 21.85 12.4739 21.85C9.22467 21.85 8.89282 21.85 7.60272 21.7768C6.84296 21.7676 6.0905 21.6276 5.37838 21.363C4.85819 21.1647 4.38549 20.8596 3.99085 20.4674C3.59621 20.0752 3.28842 19.6047 3.0874 19.0862C2.82544 18.3744 2.68532 17.6236 2.67291 16.8653C2.61561 15.6012 2.60228 15.2446 2.60228 12.0031C2.60228 8.7602 2.60228 8.42886 2.67291 7.13944C2.68153 6.37301 2.82172 5.61372 3.0874 4.8946C3.49388 3.8447 4.32685 3.01835 5.37838 2.61649C6.09085 2.3532 6.84309 2.21325 7.60272 2.20265C8.87016 2.14543 9.226 2.12946 12.4739 2.12946C15.7218 2.12946 16.055 2.12946 17.3437 2.20265C18.1039 2.21178 18.8569 2.35178 19.5694 2.61649C20.0877 2.81645 20.5585 3.12241 20.9514 3.51473C21.3443 3.90705 21.6508 4.37706 21.8511 4.8946C22.113 5.60644 22.2531 6.35722 22.2655 7.11549C22.3228 8.38096 22.3375 8.73625 22.3375 11.9791C22.3375 15.2206 22.3375 15.5693 22.2802 16.8414H22.2655V16.84Z" fill="white"/>
</g>
<defs>
<clipPath id="clip0_18_197">
<rect width="24" height="24" fill="white" transform="translate(0.5)"/>
</clipPath>
</defs>
</svg>
