<svg width="25" height="24" viewBox="0 0 25 24" fill="none" xmlns="http://www.w3.org/2000/svg">
<g clip-path="url(#clip0_61_676)">
<g clip-path="url(#clip1_61_676)">
<g clip-path="url(#clip2_61_676)">
<path d="M0.5 24L2.187 17.837C1.146 16.033 0.599 13.988 0.6 11.891C0.603 5.335 5.938 0 12.493 0C15.674 0.001 18.66 1.24 20.906 3.488C23.151 5.736 24.387 8.724 24.386 11.902C24.383 18.459 19.048 23.794 12.493 23.794C10.503 23.793 8.542 23.294 6.805 22.346L0.5 24ZM7.097 20.193C8.773 21.188 10.373 21.784 12.489 21.785C17.937 21.785 22.375 17.351 22.378 11.9C22.38 6.438 17.963 2.01 12.497 2.008C7.045 2.008 2.61 6.442 2.608 11.892C2.607 14.117 3.259 15.783 4.354 17.526L3.355 21.174L7.097 20.193ZM18.484 14.729C18.41 14.605 18.212 14.531 17.914 14.382C17.617 14.233 16.156 13.514 15.883 13.415C15.611 13.316 15.413 13.266 15.214 13.564C15.016 13.861 14.446 14.531 14.273 14.729C14.1 14.927 13.926 14.952 13.629 14.803C13.332 14.654 12.374 14.341 11.239 13.328C10.356 12.54 9.759 11.567 9.586 11.269C9.413 10.972 9.568 10.811 9.716 10.663C9.85 10.53 10.013 10.316 10.162 10.142C10.313 9.97 10.362 9.846 10.462 9.647C10.561 9.449 10.512 9.275 10.437 9.126C10.362 8.978 9.768 7.515 9.521 6.92C9.279 6.341 9.034 6.419 8.852 6.41L8.282 6.4C8.084 6.4 7.762 6.474 7.49 6.772C7.218 7.07 6.45 7.788 6.45 9.251C6.45 10.714 7.515 12.127 7.663 12.325C7.812 12.523 9.758 15.525 12.739 16.812C13.448 17.118 14.002 17.301 14.433 17.438C15.145 17.664 15.793 17.632 16.305 17.556C16.876 17.471 18.063 16.837 18.311 16.143C18.559 15.448 18.559 14.853 18.484 14.729Z" fill="white"/>
</g>
</g>
</g>
<defs>
<clipPath id="clip0_61_676">
<rect width="24" height="24" fill="white" transform="translate(0.5)"/>
</clipPath>
<clipPath id="clip1_61_676">
<rect width="24" height="24" fill="white" transform="translate(0.5)"/>
</clipPath>
<clipPath id="clip2_61_676">
<rect width="24" height="24" fill="white" transform="translate(0.5)"/>
</clipPath>
</defs>
</svg>
